<svg width="170" height="32" viewBox="0 0 170 32" fill="none" xmlns="http://www.w3.org/2000/svg">
<path d="M1.54778 3.5C-0.151609 7.8 3.09267 9 15.4518 8.9C21.6314 8.9 21.5 9.5 24.5 8.5C24.5 4.5 24.5 6.4 24.5 6C24.5 0.313861 21.4769 1 11.7441 1C3.24716 1 2.47471 1.2 1.54778 3.5Z" fill="#EC40C1"/>
<path d="M116.5 21C113.9 26.6 111.2 31.5 111.5 31.8C111.9 32.3 132.9 31 133.5 30.5C133.975 29.978 128.5 21 128.5 21C125.464 16.4481 122.521 11.7204 121.313 11.3C120.713 11.1 119.1 15.4 116.5 21Z" fill="#40C1EC"/>
<path d="M32 13.4C27.9 15 26.7 16.9 26.7 21.8C26.7 25.5 27.2 26.7 29.4 28.7C32.3 31.2 37.7 31.8 41.1 30C43.7 28.6 43.9 20 41.3 20C39.8 20 39.8 19.9 41.3 18.2C43.7 15.6 43.5 15.1 39.5 13.4C35.5 12 35.1 12.1 32 13.4ZM38 19C39.2 19.8 38.9 20 36.8 20C34.7 20 34 20.5 34 21.9C34 23 35 23.3 36 23.5C37.6 23.9 37.4 24.8 35.8 24.9C33.1 25.1 31.5 20.9 33.5 19C35.3 17.2 36 17.7 38 19Z" fill="#ECECEC"/>
<path d="M0.399999 14.3C0.0999991 15.1 -8.88351e-07 19 0.199999 23.1C0.499999 30.3 0.599999 30.5 3.3 30.8C5.7 31.1 6 30.8 6 28.1C6 25.6 6.4 25.1 8.8 24.8C10.9 24.6 11.6 23.9 11.8 21.8C12.1 19.5 11.7 19.1 8.8 18.7C6.2 18.4 6.5 18.3 10.3 18.2C14.6 18 15 17.8 15 15.5C15 13.1 14.8 13 8 13C3 13 0.799999 13.4 0.399999 14.3Z" fill="#ECECEC"/>
<path d="M17.4 14.3C17.1 15.1 17 19 17.2 23.1C17.5 30.3 17.6 30.5 20.2 30.8C23.6 31.2 24.2 29.2 23.8 20C23.5 13.7 23.4 13.5 20.7 13.2C19.1 13 17.8 13.4 17.4 14.3Z" fill="#ECECEC"/>
<path d="M46.4 14.3C46.1 15.1 46 19 46.2 23.1C46.5 30.2 46.6 30.5 49 30.5C51.1 30.5 51.6 29.9 52.1 27C52.5 25.1 52.8 24.1 52.9 24.7C52.9 25.4 54.3 26 56 26C57.7 26 59.1 25.4 59.1 24.7C59.2 24.1 59.5 25.1 59.9 27C60.4 29.9 60.9 30.5 63 30.5C65.5 30.5 65.5 30.4 65.5 22C65.5 13.6 65.5 13.5 62.9 13.2C60.9 13 59.7 13.6 58 15.9L55.9 19L53.3 16C50.7 12.9 47.3 12 46.4 14.3Z" fill="#ECECEC"/>
<path d="M75.3 13.7C74.6 13.9 74 14.7 74 15.3C74 15.9 72.6 19.3 70.8 22.8C68.2 28.1 67.9 29.3 69.1 30.1C71.3 31.4 74 31.2 74.6 29.5C75.4 27.6 79.4 27.6 81 29.5C82.6 31.4 85.9 31.4 86.6 29.6C86.9 28.8 85.6 24.7 83.6 20.6C80.1 13.1 79 12.2 75.3 13.7Z" fill="#ECECEC"/>
<path d="M99 21.9V31H105C109.8 31 111.1 30.6 111.9 29.1C113.2 26.7 112.4 26 108.4 26H105.1L104.8 19.7C104.5 13.8 104.4 13.5 101.8 13.2L99 12.9V21.9Z" fill="#ECECEC"/>
<path d="M133.5 13.5C132.4 14.6 133.5 26 133.5 27C133.5 28.2983 133.7 29.5 133.7 29.5C134 30.5 134.8 31 136.5 31C138.7 31 139 30.6 139 27.2C139.1 23.7 139.1 23.6 140.6 25.5C143.9 30 145.1 31 147 31C148.9 31 149 30.3 149 22C149 13.1 149 13 146.5 13C144.3 13 144 13.4 144 16.7V20.5L141.3 16.7C139 12 135.3 11.7 133.5 13.5Z" fill="#ECECEC"/>
<path d="M152.4 14.3C152.1 15.1 152 19 152.2 23.1L152.5 30.5H158.4C163.5 30.4 164.5 30.1 166.6 27.7C172.3 21 167.5 13 157.9 13C154.7 13 152.8 13.5 152.4 14.3ZM162.4 20.7C163.1 22.3 161.4 25 159.9 25C159.4 25 159 23.4 159 21.5C159 18.9 159.4 18.2 160.4 18.6C161.2 18.9 162.1 19.9 162.4 20.7Z" fill="#ECECEC"/>
</svg>
